P1
# CREATOR: GIMP PNM Filter Version 1.1
50 50
0000000000000000000000000000000000000000000000000000000000000000000000
0000000000000000000000000000000000000000000000000000000000000000000000
0000000000000000000000000000000000000000000000000000000000000000000000
0000000000000000000000000000000000000000000000000000000000000000000000
0000000000000000000000000000000000000000000000000000000000000000000000
0000000000000000000000000000000001111100000000000000000000000000000000
0000000000011000000000000000000000000000000000000000000000011000000000
0000000000000000000000000000000000000010000000000000000000000000000000
0000000000000000010000000000000000000000000000000000000000000000001000
0000000000000000100000000000000000000000000001000000000000000000110000
0000000000000000000000000100000000000000000100000000000000000000000000
0000100000000000000000100000000000000000000000000000001000000000000000
0010000000000000000000000000000001000000000000000001000000000000000000
0000000000000100000000000000001000000000000000000000000000000001000000
0000000000100000000000000000000000000000001000000000000000010000000000
0000000000000000000000100000000000000010000000000000000000000000000000
0010000000000000010000000000000000000000000000000001000000000000000100
0000000000000000000000000000000100000000000000100000000000000000000000
0000000000100000000000000100000000000000000000000000000000001000000000
0000010000000000000000000000000000000000100000000000001000000000000000
0000000000000000000100000000000000100000000000000000000000000000000001
0000000000000100000000000000000000000000000000001000000000000001000000
0000000000000000000000000000100000000000001000000000000000000000000000
0000000100000000000000100000000000000000000000000000000001000000000000
0100000000000000000000000000000000001000000000000001000000000000000000
0000000000000001000000000000001000000000000000000000000000000000010000
0000000000100000000000000000000000000000000010000000000000001000000000
0000000000000000000000010000000000000001000000000000000000000000000000
0001000000000000000100000000000000000000000000000001100000000000000010
0000000000000000000000000000000100000000000000001000000000000000000000
0000000000000000000000000001000000000000000000000000000000000000000000
0000000100000000000000000000000000000000000000000000000010000000000000
0000000000000000000000000000000000001000000000000000000000000000000000
0000000000000001000000000000000000000000000000000000000000000000000000
0000000000000000000000000000000000000000000000000000000000000000000000
00000000000000000000000000000000000000000000000000