P1
# CREATOR: GIMP PNM Filter Version 1.1
50 50
0000000000000000000000000000000000000000000000000000000000000000000000
0000000000000000000000000000000000000000000000000000000000000000000000
0000000000000000000000000000000000000000000000000000000000000000000000
0000000000000000000000000000000000000000000000000000000000000000000000
0000000000000000000000000000000000000000011111111100000000000000000000
0000000000000000001110000000001110000000000000000000000000000000001100
0000000000000110000000000000000000000000000001100000000000000000110000
0000000000000000000000001000000000000000000000100000000000000000000000
0001000000000000000000000001000000000000000000000000100000000000000000
0000000010000000000000000000000100000000000000000000000000010000000000
0000000000110000000000000000000000000001100000000000000000001000000000
0000000000000000000010000000000000000001000000000000000000000000000000
0100000000000000000100000000000000000000000000000001000000000000000001
0000000000000000000000000000000100000000000000001000000000000000000000
0000000000001000000000000000100000000000000000000000000000000010000000
0000000010000000000000000000000000000000001000000000000000100000000000
0000000000000000000000100000000000000010000000000000000000000000000000
0010000000000000001000000000000000000000000000000000100000000000000010
0000000000000000000000000000000010000000000000001000000000000000000000
0000000000001000000000000000100000000000000000000000000000000010000000
0000000001000000000000000000000000000000010000000000000000010000000000
0000000000000000000001000000000000000001000000000000000000000000000000
0100000000000000000010000000000000000000000000000010000000000000000000
1100000000000000000000000000011000000000000000000001000000000000000000
0000000001000000000000000000000010000000000000000000000000100000000000
0000000000000100000000000000000000000100000000000000000000000000100000
0000000000000000100000000000000000000000000001100000000000000000110000
0000000000000000000000000011000000000000000110000000000000000000000000
0000000011100000000011100000000000000000000000000000000000000111111111
0000000000000000000000000000000000000000000000000000000000000000000000
0000000000000000000000000000000000000000000000000000000000000000000000
0000000000000000000000000000000000000000000000000000000000000000000000
0000000000000000000000000000000000000000000000000000000000000000000000
0000000000000000000000000000000000000000000000000000000000000000000000
0000000000000000000000000000000000000000000000000000000000000000000000
00000000000000000000000000000000000000000000000000