P1
# CREATOR: GIMP PNM Filter Version 1.1
50 50
0000000000000000000000000000000000000000000000000000000000000000000000
0000000000000000000000000000000000000000000000000000000000000000000000
0000000000000000000000000000000000000000000000000000000000000000000000
0000000000000000000000000000000000000000000000000000000000000000000000
0000000000000000000000000000000000000000000000000000000000000000000000
0000000000000000000000000000000111110000000000000000000000001000000000
0000000011110000000000000000000000000000010000000000000011000000000000
0000000000000000000000100000000000010000000000000000000000000000000000
0001100000000010000000000000000000000000000000000000000100000001000000
0000000000000000000000000000000000001000000100000000000000000000000000
0000000000000000010000100000000000000000000000000000000000000000000010
0010000000000000000000000000000000000000000000000101000000000000000000
0000000000000000000000000000001100000000000000000000000000000000000000
0000000000111000000000000000000000000000000000000000000000001001000000
0000000000000000000000000000000000000001000010000000000000000000000000
0000000000000000000100000100000000000000000000000000000000000000000010
0000001000000000000000000000000000000000000000011000000001000000000000
0000000000000000000000000001000000000011000000000000000000000000000000
0000001000000000000010000000000000000000000000000000000010000000000000
0100000000000000000000000000000000010000000000000000100000000000000000
0000000000000001000000000000000001100000000000000000000000000000100000
0000000000000001000000000000000000000000000010000000000000000000010000
0000000000000000000000010000000000000000000000100000000000000000000000
0011000000000000000000000001000000000000000000000000100000000000000000
0000000100000000000000000000000100000000000000000000000000100000000000
0000000000010000000000000000000000000010000000000000000000000100000000
0000000000000000001000000000000000000000100000000000000000000000000001
0000000000000000000010000000000000000000000000000100000000000000000001
0000000000000000000000000000010000000000000000000100000000000000000000
0000000000100000000000000000100000000000000000000000000000001000000000
0000000010000000000000000000000000000000000000000000000001000000000000
0000000000000000000000000000000000000000000000000000000000000000000000
0000000000000000000000000000000000000000000000000000000000000000000000
0000000000000000000000000000000000000000000000000000000000000000000000
0000000000000000000000000000000000000000000000000000000000000000000000
00000000000000000000000000000000000000000000000000