P1
# CREATOR: GIMP PNM Filter Version 1.1
50 50
0000000000000000000000000000000000000000000000000000000000000000000000
0000000000000000000000000000000000000000000000000000000000000000000000
0000000000000000000000000000000000000011111110000000000000000000000000
0000000000110000001000001000000000000000000000000000000000001011000010
0000100000000000000000000000000000000001000010010000011000000000000000
0000000000000000001000000101000001000000000000000000000000000000000010
0000001100000100000000000000000000000000000000010000000001100001000000
0000000000000000000000000010000000000001000100000000000000000000000000
0000011000000000000010010000000000000000000000000000000100000000000000
0101000000000000000000000000000000100000000000000000100000000000000000
0000000000000010000000000000000001000000000000000000000000000001000000
0000000000000010000000000000000000000000000101111111111100000000010000
0000000000000000000000111100000000011111111111100000000000000000000000
0001000000000000000000000010000000000000000000000000010000000000000000
0000000100000000000000000000000001000000001111111000000001000000000000
0000000000000100000000100000100000000100000000000000000000000001000000
0010000110000000010000000000000000000000000100000000111111000000000100
0000000000000000000000010000000001100000000000110000000000000000000000
0001000000000000000000000010000000000000000000000000010000000000000000
0000001000000000000000000000000001000000000000000000000010000000000000
0000000000000100000000001111000000001000000000000000000000000001000000
0111100100000000100000000000000000000000000100000001000001000000001000
0000000000000000000000100000000100000100000000100000000000000000000000
0010000000010000010000000001000000000000000000000000100000000100000100
0000000100000000000000000000000010000000010000011000000001100000000000
0000000000001000000001000000100000001111000000000000000000000011111111
1111111111111111100000000000000000000000000000000000000000000000000000
0000000000000000000000000000000000000000000000000000000000000000000000
0000000000000000000000000000000000000000000000000000000000000000000000
0000000000000000000000000000000000000000000000000000000000000000000000
0000000000000000000000000000000000000000000000000000000000000000000000
0000000000000000000000000000000000000000000000000000000000000000000000
0000000000000000000000000000000000000000000000000000000000000000000000
0000000000000000000000000000000000000000000000000000000000000000000000
0000000000000000000000000000000000000000000000000000000000000000000000
00000000000000000000000000000000000000000000000000