P1
# CREATOR: GIMP PNM Filter Version 1.1
50 50
0000000000000000000000000000000000000000000000000000000000000000000000
0000000000000000000000000000000000000000000000000000000000000000000000
0000000000000000000000000000000000000000000000000000000000000000000000
0000000000000000000000000000000000000000000000011111000000000000000000
0000000000000000000000000001000011111111111000000000000000000000000000
0000000100000000000000011111111111000000000000000000000001100000000000
0000000000000110000000000000000000000010000000000000000000000000100000
0000000000000000001000000000000000000000000010000000000000000000000010
0000000000000000000000000100000000000000000000001000000000000000000000
0000010000000000000000000000100000000000000000000000000100000000000000
0000000010000000000000000000000000010000000000000000000000100000000000
0000000000000001000000000000000000000010000000000000000000000000001000
0000000000000000001000000000000000000000000000100000000000000000000010
0000000000000000000000000010000000000000000000001000000000000000000000
0000001000000000000000000000100000000000000000000000000010000000000000
0000000010000000000000000000000000000100000000000000000000100000000000
0000000000000000010000000000000000000010000000000000000000000000000100
0000000000000000001000000000000000000000000000010000000000000000000001
0000000000000000000000000001000000000000000000000100000000000000000000
0000000100000000000000000000010000000000000000000000000001000000000000
0000000001000000000000000000000000000100000000000000000000010000000000
0000000000000000010000000000000000000001000000000000000000000000000010
0000000000000000000100000000000000000000000000001000000000000000000001
0000000000000000000000000000100000000000000000000100000000000000000000
0000000010000000000000000000010000000000000000000000000000100000000000
0000000001000000000000000000000000000010000000000000000000010000000000
0000000000000000001000000000000000000001000000000000000000000000000010
0000000000000000000100000000000000000000000000001000000000000000000000
1000000000000000000000000000100000000000000000000010000000000000000000
0000000010000000000000000000001000000000000000000000000000100000000000
0000000000100000000000000000000000000010000000000000000000000111111111
1111111111111111110000000000000000000000000000000000000000000000000000
0000000000000000000000000000000000000000000000000000000000000000000000
0000000000000000000000000000000000000000000000000000000000000000000000
0000000000000000000000000000000000000000000000000000000000000000000000
00000000000000000000000000000000000000000000000000