P1
# CREATOR: GIMP PNM Filter Version 1.1
50 50
0000000000000000000000000000000000000000000000000000000000000000000000
0000000000000000000000000000000000000000000000000000000000000000000000
0000000000000000000000000000000000000000000000000000000000000000000000
0000000000000000000000000000000000000000000000000000000000000000000000
0000000000000000000000000000000000000000000000000000000000000000000000
0000000000000000000000000000000000000000000000000000000000000000000000
0000000000000000000000000000000000000000000000000000000000000000000000
0000000000000000000000000000000011000000000000000000000000000000000000
0000000000010100000000000000000000000000000000000000000000001001100000
0000000000000000000000000000000000000000100010000000000000000000000000
0000000000000000000100000110000000000000000000000000000000000000000010
0000001100000000000000000000000000000000000000001000000001100000000000
0000000000000000000000000001000000000001000000000000000000000000000000
0000000100000000000110000000000000000000000000000000000010000000000000
1100000000000000000000000000000000010000000000000001000000000000000000
0000000000000001000000000000000010000000000000000000000000000000100000
0000000000000100000000000000000000000000000010000000000000000000100000
0000000000000000000000010000000000000000000001100000000000000000000000
0011000000000000000000000011000000000000000000000000100000000000000000
0000000010000000000000000000000100000000000000000000000000010000000000
0000000000010000000000000000001111111111110000000000000000001000000001
1111111111100000000000000000000000000001100111111000000000000000000000
0000000000000000000111110000000000000000000000000000000000000000000000
0000000000000000000000000000000000000000000000000000000000000000000000
0000000000000000000000000000000000000000000000000000000000000000000000
0000000000000000000000000000000000000000000000000000000000000000000000
0000000000000000000000000000000000000000000000000000000000000000000000
0000000000000000000000000000000000000000000000000000000000000000000000
0000000000000000000000000000000000000000000000000000000000000000000000
0000000000000000000000000000000000000000000000000000000000000000000000
0000000000000000000000000000000000000000000000000000000000000000000000
0000000000000000000000000000000000000000000000000000000000000000000000
0000000000000000000000000000000000000000000000000000000000000000000000
0000000000000000000000000000000000000000000000000000000000000000000000
0000000000000000000000000000000000000000000000000000000000000000000000
00000000000000000000000000000000000000000000000000