P1
# CREATOR: GIMP PNM Filter Version 1.1
50 50
0000000000000000000000000000000000000000000000000000000000000000000000
0000000000000000000000000000000000000000000000000000000000000000000000
0000000000000000000000000000000000000000000000000000000000000000000000
0000000000000000000000000000000000000000000000000000000000000000000000
0000000000000000000000000000000000000000001111110000000000000000000000
0000000000000000111111000000111000000000000000000000000000000000110000
0000000000010000000000000000000000000000000000000000000000000010000000
0000000000000000000000000000000000000000001000000000000000000000000000
0000000000000000000001000000000000000000000000000000000000000000000000
0100000000000000000000000000000000000011111110000010000000000000000000
0000000000000000110000000111010000000000000000000000000000000000010000
0000000111000000000000000000000000000000000001000000000110001100000000
0000000000000000000000000110000001100000001100000000000000000000000000
0000000111111000000000001000000000000000000000000000000000000000000000
0000100000000000000000000000000000000000000000000000000100000000000000
0000000000000000000000000000000000010000000000000000000000000000000000
0000111111100001000000000000000000000000000000000001110000000110010000
0000000000000000000000000000001100000000000110000000000000000000000000
0000000011000000000001101000000000000000000000000000000001000000000111
1000010000000000000000000000000000000100000001110000000100000000000000
0000000000000000001111111000000000001000000000000000000000000000000000
0000000000000000100000000000000000000000000000000000000000000000001000
0000000000000000000000000000000000000000000000100000000000000000000000
0000000000000000000000000100000000000000000000000000000000000000000000
0000010000000000000000000000000000000000000011111111111000000000000000
0000000000000000000001110000000001011000000000000000000000000000000001
1000000000011000110000000000000000000000000000001000000000011000000100
0000000000000000000000000000100000000110000000010000000000000000000000
0000000001111111100000000010000000000000000000000000000000000000000000
0000001000000000000000000000000000000000000000000000000100000000000000
0000000000000000000000000000000000100000000000000000000000000000000000
0000000000000010000000000000000000000000000000000000000000000001000000
0000000000000000000000000000000000000000001000000000000000000000000000
0000000000000000000011000000000000000000000000000000000000000000000000
0000000000000000000000000000000000000000000000000000000000000000000000
00000000000000000000000000000000000000000000000000