P1
# CREATOR: GIMP PNM Filter Version 1.1
50 50
0000000000000000000000000000000000000000000000000000000000000000000000
0000000000000000000000000000000000000000000000000000000000000000000000
0000000000000000000000000000000000000000000000000000000000000000000000
0000000011110000000000000000000000000000000000000000000001000000000000
0000000000000000000000000000000000001000000000000000000000000000000000
0000000000000001000000000000000000000000000000000000000000000001100000
0000000000000000000000000000000000000000001000000000000000000000001000
0000000000000000000000100000000000000000000000010000000000000000000000
0100000000000000000000000001000000000000000000000010000000000000000000
0000000010000000000000000000010000000000000000000000000000100000000000
0000000001000000000000000000000000000010000000000000000000100000000000
0000000000000000000100000000000000000010000000000000000000000000000001
0000000000000000001000000000000000000001000000000010000000000000000010
0000000000000000001000000000001000000000000000000000000000000000000010
0000000000100000000000000000000000000000000000010000000000001000000000
0000000000000000000000000010000000000000010000000000000000000000000000
0000010000000000000001000000000000000000000000000000000100000000000000
0100000000000000000000000000000000100000000000000001000000000000000000
0000000000000010000000000000000010000000000000000000000000000001000000
0000000000001000000000000000000000000000000100000000000000000010000000
0000000000000000000000010000000000000000000000000000000000000000000000
0001000000000000000000000000000000000000000000000000010000000000000000
0000000000000000000000000000000010000000000000000000000000000000000000
0000000000001000000000000000000000000000000000000000000000000010000000
0000000000000000000000000000000000000000001000000000000000000000000000
0000000000000000000000000000000000000000000000000000000000000000100000
0000000000000000000000000000000000000000000001000000000000000000000000
0000000000000000000000000011000000000000000000000000000000000000000000
0000000010000000000000000000000000000000000000000000000000011000000000
0000000000000000000000000000000000000000011000000000000000000000000000
0000000000000000000000011100000000000000000000000000000000000000000000
0000001111000000000000000000000000000000000000000000000000011111000000
0000000000000000000000000000000000000000000000000000000000000000000000
0000000000000000000000000000000000000000000000000000000000000000000000
0000000000000000000000000000000000000000000000000000000000000000000000
00000000000000000000000000000000000000000000000000