P1
# CREATOR: GIMP PNM Filter Version 1.1
50 50
0000000000000000000000000000000000000000000000000000000000000000000000
0000000000000000000000000000000000000000000000000000000000000000000000
0000000000000000000000000000000000000000000000000000000000000000000000
0000000000000000000000000000000000000000000000000000000000000000000000
0000000000000000000000000000000000000000000000000000000000000000000000
0000000000000000000000000000000000000000000000000000000000000000000000
0000000000000000000000000000000000000000000000000000000000000000000000
0000000000000000000000000000000000000000000000000000000000000000000000
0000000000000000000000000000000000000000000000000000000000000000000000
0000000000000000000000000000000000000000000000000000000000000000000000
0000000000000000000000000000000000000000000000000000000000000000000000
0000000000000000000000000000000000000000000000000000000000000000000001
1000000000000000000000000000000000000000000000011100000000000000000000
0000000000000000000000000111000000000000000000000000000111111111111111
0000111000000000000000000000000000110000000000000100000110000000000000
0000000000000010000000000000001000010000000000000000000000000000100000
0000000000100010000000000000000000000000000100000000000000001111111100
0000000000000000011111110000000000000000000000011000000000000000000100
0000000000000000000000000000100000000000000000010000000000000000000000
0000000010000000000000000001000000000000000000001111000000100000000000
0000000100001111100000000001100100000110000000000000000000100100001000
0000001100001000010000000000000000000011110000111111111111111111111100
0000000000000000000001111111000000000100001000000000000000000000000000
0100001000000000001111000000000000000000000000000001110100000000000000
0000000000000000000000000000000001100000000000000000000000000000000000
0000000000000000000000000000000000000000000000000000000000000000000000
0000000000000000000000000000000000000000000000000000000000000000000000
0000000000000000000000000000000000000000000000000000000000000000000000
0000000000000000000000000000000000000000000000000000000000000000000000
0000000000000000000000000000000000000000000000000000000000000000000000
0000000000000000000000000000000000000000000000000000000000000000000000
0000000000000000000000000000000000000000000000000000000000000000000000
0000000000000000000000000000000000000000000000000000000000000000000000
0000000000000000000000000000000000000000000000000000000000000000000000
0000000000000000000000000000000000000000000000000000000000000000000000
00000000000000000000000000000000000000000000000000