P1
# CREATOR: GIMP PNM Filter Version 1.1
50 50
0000000000000000000000000000000000000000000000000000000000000000000000
0000000000000000000000000000000000000000000000000000000000000000000000
0000000000000000000000000000000000000000000000000000000000000000000000
0000000000000000000000000000000000000000000000000000000000000000000000
0000000000000000000000000000000000000000000011111110000000000000000000
0000000000000000000000110000000110000000000000000000000000000000000000
0111000000000100000000000000000000000000000000001111000000000000100000
0000000000000000000000000001100000000000000001000000000000000000000000
0000001000000000000000000010000000000000000000000000000100000000000000
0000000100000000000000000000000000010000000000000000000000100000000000
0000000000000010000000000000000000000010000000000000000000000000100000
0000000000000000000100000000000000000000000100000000000000000000000001
0000000000000000000000010000000000000000000000000100000000000000000000
0001000000000000000000000000001000000000000000000000010000000000000000
0000000000100000000000000000000010000000000000000000000000001000000000
0000000000001000000000000000000000000000100000000000000000000010000000
0000000000000000000010000000000000000000001000000000000000000000000000
1000000000000000000000100000000000000000000000000010000000000000000000
0010000000000000000000000000001000000000000000000000010000000000000000
0000000001000000000000000000000001000000000000000000000000010000000000
0000000000000110000000000000000000000011000000000000000000000000100000
0000000000000000001000000000000000000000000001000000000000000000000110
0000000000000000000000000010000000000000000000010000000000000000000000
0000000100000000000000000010000000000000000000000000000000110000000000
0000110000000000000000000000000000000000100000000000011000000000000000
0000000000000000000001100000000110000000000000000000000000000000000000
0001100000100000000000000000000000000000000000000000000111110000000000
0000000000000000000000000000000000000000000000000000000000000000000000
0000000000000000000000000000000000000000000000000000000000000000000000
0000000000000000000000000000000000000000000000000000000000000000000000
0000000000000000000000000000000000000000000000000000000000000000000000
0000000000000000000000000000000000000000000000000000000000000000000000
0000000000000000000000000000000000000000000000000000000000000000000000
0000000000000000000000000000000000000000000000000000000000000000000000
0000000000000000000000000000000000000000000000000000000000000000000000
00000000000000000000000000000000000000000000000000