P1
# CREATOR: GIMP PNM Filter Version 1.1
50 50
0000000000000000000000000000000000000000000000000000000000000000000000
0000000000000000000000000000000000000000000000000000000000000000000000
0000000000000000000000000000000000000000000000000000000000000000000000
0000000000000000000000000000000000000000000000000000000000000000000000
0000000000000000000000000000000000000000000000000000000000000000000000
0000000000000000000000000000000000000000000000000000000000000000000000
0000000000000000000000000000000000000000000000000000000000000000000000
0000000000000000000000000000000000000000000000000000000000000000000000
0000000000000000000000000000000000000000000000000000000000000001111111
1110000000000000000000000000000000000000011100000000011100000000000000
0000000000000000000111000000000000011000000000000000000000000000000011
0000000000000000010000000000000000000000000000011000000000000000000010
0000000000000000000000000001000000000000000000001100000000000000000000
0000001100000000000000000000010000000000000000000000000010000000000000
0000000001000000000000000000000000001000000000000000000000010000000000
0000000000000001100000000000000000000010000000000000000000000000010000
0000000000000000001000000000000000000000000001000000000000000000000010
0000000000000000000000000100000000000000000000011000000000000000000000
0000001000000000000000000001000000000000000000000000000010000000000000
0000000100000000000000000000000000001000000000000000000010000000000000
0000000000000000010000000000000000001000000000000000000000000000000100
0000000000000001100000000000000000000000000000001000000000000000010000
0000000000000000000000000000010000000000000010000000000000000000000000
0000000000111000000000010000000000000000000000000000000000000011110000
1110000000000000000000000000000000000000000001111110000000000000000000
0000000000000000000000000000000000000000000000000000000000000000000000
0000000000000000000000000000000000000000000000000000000000000000000000
0000000000000000000000000000000000000000000000000000000000000000000000
0000000000000000000000000000000000000000000000000000000000000000000000
0000000000000000000000000000000000000000000000000000000000000000000000
0000000000000000000000000000000000000000000000000000000000000000000000
0000000000000000000000000000000000000000000000000000000000000000000000
0000000000000000000000000000000000000000000000000000000000000000000000
0000000000000000000000000000000000000000000000000000000000000000000000
0000000000000000000000000000000000000000000000000000000000000000000000
00000000000000000000000000000000000000000000000000