P1
# CREATOR: GIMP PNM Filter Version 1.1
50 50
0000000000000000000000000000000000000000000000000000000000000000000000
0000000000000000000000000000000000000000000000000000000000000000000000
0000000000000000000000000000000000000000000000000000000000000000000000
0000000000000000000000000000000000000000000000000000000000000000111111
0000000000000000000000000000000000000000111111100111000000000000000000
0000000000000000001110000000000110000000000000000000000000000000000110
0000000000000110000000000000000000000000000000100000000000000000010000
0000000000000000000000000100000000000000000000110000000000000000000000
0000100000000000000000000000100000000000000000000000001000000000000000
0000000001100000000000000000000001000000000000000000000000001000000000
0000000000001100000000000000000000000000010000000000000000000010000000
0000000000000000000000100000000000000000001000000000000000000000000000
0001000000000000000001000000000000000000000000000000010000000000000000
1100000000000000000000000000000000100000000000000010000000000000000000
0000000000000010000000000000010000000000000000000000000000000000110000
0000000001000000000000000000000000000000000001000000000000010000000000
0000000000000000000000000100000000000001000000000000000000000000000000
0000010000000000000100000000000000000000000000000000000100000000000011
0000000000000000000000000000000000010000000000001000000000000000000000
0000000000000011000000000000100000000000000000000000000000000000100000
0000000010000000000000000000000000000000000010000000000000010000000000
0000000000000000000000010000000000000001000000000000000000000000000000
0001000000000000000100000000000000000000000000000000100000000000000001
0000000000000000000000000000000010000000000000000010000000000000000000
0000000000010000000000000000001100000000000000000000000000001000000000
0000000000010000000000000000000000000000100000000000000000000010000000
0000000000000000000100000000000000000000000110000000000000000000000010
0000000000000000000000000100000000000000000000110000000000000000000000
0000001100000000000000000110000000000000000000000000000000110000000000
0001100000000000000000000000000000000000111000000001100000000000000000
0000000000000000000000111111111000000000000000000000000000000000000000
0000000000000000000000000000000000000000000000000000000000000000000000
0000000000000000000000000000000000000000000000000000000000000000000000
0000000000000000000000000000000000000000000000000000000000000000000000
0000000000000000000000000000000000000000000000000000000000000000000000
00000000000000000000000000000000000000000000000000