P1
# CREATOR: GIMP PNM Filter Version 1.1
50 50
0000000000000000000000000000000000000000000000000000000000000000000000
0000000000000000000000000000000000000000000000000000000000000000000000
0000000000000000000000000000000000011111111111110000000000000000000000
0000000000000110000000000000110000000000000000000000000000000110000000
0000000000110000000000000000000000000000110000000000000000000010000000
0000000000000000000010000000000000000000000100000000000000000000000001
0000000000000000000000010000000000000000000000001000000000000000000000
0000100000000000000000000000100000000000000000000000000100000000000000
0000000100000000000000000000000000011000000000000000000001000000000000
0000000000000000100000000000000000000100000000000000000000000000000100
0000000000000000100000000000000000000000000000010000000000000000001000
0000000000000000000000000000100000000000000000100000000000000000000000
0000000010000000000000000010000000000000000000000000000000100000000000
0000001000000000000000000000000000000010000000000000000010000000000000
0000000000000000001000000000000000001000000000000000000000000000000110
0000000000000000100000000000000000000000000000010000000000000000000100
0000000000000000000000000001000000000000000000010000000000000000000000
0000001000000000000000000000100000000000000000000000000010000000000000
0000000001000000000000000000000000010000000000000000000000001100000000
0000000000000001000000000000000000000000001000000000000000000001100000
0000000000000000000000010000000000000000001100000000000000000000000000
0000111000000000000011000000000000000000000000000000000011000000000001
0000000000000000000000000000000000000011100000011000000000000000000000
0000000000000000000011111110000000000000000000000000000000000000000000
0000000000000000000000000000000000000000000000000000000000000000000000
0000000000000000000000000000000000000000000000000000000000000000000000
0000000000000000000000000000000000000000000000000000000000000000000000
0000000000000000000000000000000000000000000000000000000000000000000000
0000000000000000000000000000000000000000000000000000000000000000000000
0000000000000000000000000000000000000000000000000000000000000000000000
0000000000000000000000000000000000000000000000000000000000000000000000
0000000000000000000000000000000000000000000000000000000000000000000000
0000000000000000000000000000000000000000000000000000000000000000000000
0000000000000000000000000000000000000000000000000000000000000000000000
0000000000000000000000000000000000000000000000000000000000000000000000
00000000000000000000000000000000000000000000000000