P1
# CREATOR: GIMP PNM Filter Version 1.1
50 50
0000000000000000000000000000000000000000000000000000000000000000000000
0000000000000000000000000000000000000000000000000000000000000000000000
0000000000000000000000000000000000000000000000000000000000000000000000
0000000000000000000000000000000000000000000000000000000000000000000000
0000000000000000000000000000000000000000000000000000000000000000000000
0000000000000000000000000000000000000000000000000000000000000000000000
0000000000000000000000000000000000000000000000000000000000000000000000
0000000000000000000000000000000000000000000000000000000000000000000000
0000000000000000000000000000000000000000000000000000000000000000000000
0000000000000000000000000000000000000000000000000000000000000000000000
0000000000000000000000000000000000000000000000000000000000000000000000
0000000000000000000000000000000000000000000000000000000000000000000000
0000000000000000000000000000000000000000000000000000000000000000000000
0000000000000000000000000000000000000000000000000000011111111100000000
0000000000000000000000000000000110000000011100000000000000000000000000
0000000000110000000000001100000000000000000000000000000000010000000000
0000011000000000000000000000000000000010000000000000000011000000000000
0000000000000000010000000000000000000110000000000000000000000000000100
0000000000000000001100000000000000000000000000100000000000000000000001
0000000000000000000000000010000000000000000000000010000000000000000000
0000010000000000000000000000001000000000000000000000000100000000000000
0000000000010000000000000000000000010000000000000000000000000100000000
0000000000000000100000000000000000000000011000000000000000000000001000
0000000000000000000000100000000000000000000000100000000000000000000000
0110000000000000000000000010000000000000000000000001000000000000000000
0000000100000000000000000000000100000000000000000000000001000000000000
0000000000010000000000000000000000000110000000000000000000001000000000
0000000000000000001000000000000000000000100000000000000000000000000001
0000000000000000000110000000000000000000000000000010000000000000000001
0000000000000000000000000000000100000000000000001000000000000000000000
0000000000001000000000000001000000000000000000000000000000000001110000
0000011000000000000000000000000000000000000001111110111000000000000000
0000000000000000000000000000001110000000000000000000000000000000000000
0000000000000000000000000000000000000000000000000000000000000000000000
0000000000000000000000000000000000000000000000000000000000000000000000
00000000000000000000000000000000000000000000000000