P1
# CREATOR: GIMP PNM Filter Version 1.1
50 50
0000000000000000000000000000000000000000000000000000000000000000000000
0000000000000000000000000000000000000000000000000000000000000000000000
0000000000000000000000000000000000000000000000000000000000000000000000
0000000000000000000000000000000000000000000000000000000000000000000000
0000000000000000000000000000000000000000000000000000000000000000000000
0000000000000000000000000000000000000000000000000000000000000000000000
0000000000000000000000000000000000000000000000000000000000000000000000
0000000000000000000000000000000000000000000000000000000000000000000000
0000000000000000000000000000000000000000000000000000000000000000000000
0000000000000000000000000000000000000000000000000000000000000000000000
0000000000000000000000000000000000000000000000000000000000000000000000
0000000000000000000000000000000000000000000000000000000000000000000000
0000000000000000000000000000000000000000000000000000000000000000000000
0000000000000000000000000000000000000000000000000000000000000000000000
0000000000000000000000000000000000000000000000000000000000000000000000
0000000000000000000000000000000000000000000000000000000000000000000000
0000000000000000000000000000000000000000000000000000001111000000000000
0000000000000000000000000000001111100111100000000000000000000000000000
0000000011000000000011000000000000000000000000000000000001000000000000
0010000000000000000000000000000000001100000000000000011000000000000000
0000000000000000100000000000000000100000000000000000000000000000010000
0000000000000001000000000000000000000000000001000000000000000000011000
0000000000000000000000001000000000000000000000100000000000000000000000
0000100000000000000000000010000000000000000000000000011000000000000000
0000001000000000000000000000000001000000000000000000000010000000000000
0000000000000100000000000000000000001000000000000000000000000001000000
0000000000000000100000000000000000000000000110000000000000000000001000
0000000000000000000000001000000000000000000001000000000000000000000000
0000100000000000000000000100000000000000000000000000001100000000000000
0000110000000000000000000000000000010000000000000000001000000000000000
0000000000000001100000000000000001100000000000000000000000000000001000
0000000000000100000000000000000000000000000000011000000000000110000000
0000000000000000000000000000111000000001110000000000000000000000000000
0000000000111111111000000000000000000000000000000000000000000000000000
0000000000000000000000000000000000000000000000000000000000000000000000
00000000000000000000000000000000000000000000000000